<?xml version="1.0" encoding="UTF-8"?>
<svg id="Layer_2" data-name="Layer 2" xmlns="http://www.w3.org/2000/svg" viewBox="0 0 873.63 883.34">
  <defs>
    <style>
      .cls-1 {
        fill: #57c126;
      }

      .cls-2 {
        fill: #ffc800;
      }

      .cls-3 {
        fill: #018ef8;
      }

      .cls-4 {
        fill: #ff2768;
      }
    </style>
  </defs>
  <g id="Layer_1-2" data-name="Layer 1">
    <g>
      <path class="cls-4" d="M147.25,446.84v-141.95h141.16v141.95H147.25Z"/>
      <path class="cls-1" d="M144.42,142.37v142.72H2.14V142.37H144.42Z"/>
      <path class="cls-2" d="M144.42,142.37V0h144.1V142.37H144.42Z"/>
      <path class="cls-3" d="M146.56,605.74H0v-138.19H144.38c0,46.2,0,93.2,.07,140.12,.07-.08,2.11-1.94,2.11-1.94Z"/>
      <path class="cls-2" d="M291.08,743.4H144.52v-138.19h144.38c0,46.2,0,93.2,.07,140.12,.07-.08,2.11-1.94,2.11-1.94Z"/>
      <path class="cls-4" d="M438.48,446.84v-141.95h141.16v141.95h-141.16Z"/>
      <path class="cls-2" d="M435.65,142.37V0h144.1V142.37h-144.1Z"/>
      <path class="cls-2" d="M582.31,743.4h-146.56v-138.19h144.38c0,46.2,0,93.2,.07,140.12,.07-.08,2.11-1.94,2.11-1.94Z"/>
      <path class="cls-4" d="M146.8,881.4H.24v-138.19H144.62c0,46.2,0,93.2,.07,140.12,.07-.08,2.11-1.94,2.11-1.94Z"/>
      <path class="cls-1" d="M435.51,142.37v142.72h-142.29V142.37h142.29Z"/>
      <path class="cls-3" d="M437.64,605.74h-146.56v-138.19h144.38c0,46.2,0,93.2,.07,140.12,.07-.08,2.11-1.94,2.11-1.94Z"/>
      <path class="cls-4" d="M437.88,881.4h-146.56v-138.19h144.38c0,46.2,0,93.2,.07,140.12,.07-.08,2.11-1.94,2.11-1.94Z"/>
      <path class="cls-4" d="M729.8,446.84v-141.95h141.16v141.95h-141.16Z"/>
      <path class="cls-2" d="M726.97,142.37V0h144.1V142.37h-144.1Z"/>
      <path class="cls-2" d="M873.63,743.4h-146.56v-138.19h144.38c0,46.2,0,93.2,.07,140.12,.07-.08,2.11-1.94,2.11-1.94Z"/>
      <path class="cls-1" d="M722.28,142.37v142.72h-142.29V142.37h142.29Z"/>
      <path class="cls-3" d="M724.41,605.74h-146.56v-138.19h144.38c0,46.2,0,93.2,.07,140.12,.07-.08,2.11-1.94,2.11-1.94Z"/>
      <path class="cls-4" d="M724.65,881.4h-146.56v-138.19h144.38c0,46.2,0,93.2,.07,140.12,.07-.08,2.11-1.94,2.11-1.94Z"/>
    </g>
  </g>
</svg>